# Blender v2.78 (sub 0) OBJ File: 'electric_turbine_small.obj'
# www.blender.org
mtllib electric_turbine_small.mtl
o Support
v 0.750000 0.812598 0.250000
v 0.250000 0.812598 0.250000
v 0.250000 0.875098 0.250000
v 0.750000 0.875098 0.250000
v 0.250000 0.812597 0.750000
v 0.750000 0.812597 0.750000
v 0.750000 0.875097 0.750000
v 0.250000 0.875097 0.750000
vt 0.1250 0.8594
vt 0.2500 0.8594
vt 0.2500 0.8750
vt 0.1250 0.8750
vt 0.3750 0.8594
vt 0.5000 0.8594
vt 0.5000 0.8750
vt 0.3750 0.8750
vt 0.2500 1.0000
vt 0.1250 1.0000
vt 0.2500 0.8750
vt 0.3750 0.8750
vt 0.3750 1.0000
vt 0.2500 1.0000
vt 0.0000 0.8594
vt 0.0000 0.8750
vn 0.0000 0.0000 -1.0000
vn 0.0000 0.0000 1.0000
vn 0.0000 1.0000 0.0000
vn 0.0000 -1.0000 -0.0000
vn 1.0000 0.0000 0.0000
vn -1.0000 0.0000 0.0000
usemtl None
s 1
f 1/1/1 2/2/1 3/3/1 4/4/1
f 5/5/2 6/6/2 7/7/2 8/8/2
f 4/4/3 3/3/3 8/9/3 7/10/3
f 6/11/4 5/12/4 2/13/4 1/14/4
f 6/15/5 1/1/5 4/4/5 7/16/5
f 2/2/6 5/5/6 8/8/6 3/3/6
o Head
v 0.625000 0.062598 0.375000
v 0.375000 0.062598 0.375000
v 0.375000 0.187598 0.375000
v 0.625000 0.187598 0.375000
v 0.375000 0.062598 0.625000
v 0.625000 0.062598 0.625000
v 0.625000 0.187598 0.625000
v 0.375000 0.187598 0.625000
vt 0.0625 0.5312
vt 0.1250 0.5312
vt 0.1250 0.5625
vt 0.0625 0.5625
vt 0.1875 0.5312
vt 0.2500 0.5312
vt 0.2500 0.5625
vt 0.1875 0.5625
vt 0.1250 0.6250
vt 0.0625 0.6250
vt 0.1250 0.5625
vt 0.1875 0.5625
vt 0.1875 0.6250
vt 0.1250 0.6250
vt 0.0000 0.5312
vt 0.0000 0.5625
vn 0.0000 0.0000 -1.0000
vn 0.0000 0.0000 1.0000
vn 0.0000 1.0000 0.0000
vn 0.0000 -1.0000 -0.0000
vn 1.0000 0.0000 0.0000
vn -1.0000 0.0000 0.0000
usemtl None
s 1
f 9/17/7 10/18/7 11/19/7 12/20/7
f 13/21/8 14/22/8 15/23/8 16/24/8
f 12/20/9 11/19/9 16/25/9 15/26/9
f 14/27/10 13/28/10 10/29/10 9/30/10
f 14/31/11 9/17/11 12/20/11 15/32/11
f 10/18/12 13/21/12 16/24/12 11/19/12
o Blade3.001
v 0.792730 0.236051 0.617977
v 0.251464 0.236051 0.305477
v 0.259552 0.296422 0.291468
v 0.800818 0.296421 0.603968
v 0.191094 0.268404 0.410041
v 0.732360 0.268404 0.722541
v 0.740448 0.328773 0.708532
v 0.199182 0.328774 0.396032
vt 0.0312 0.6406
vt 0.1875 0.6406
vt 0.1875 0.6562
vt 0.0312 0.6562
vt 0.2188 0.6406
vt 0.3750 0.6406
vt 0.3750 0.6562
vt 0.2188 0.6562
vt 0.1875 0.6875
vt 0.0312 0.6875
vt 0.1875 0.6562
vt 0.3438 0.6562
vt 0.3438 0.6875
vt 0.1875 0.6875
vt 0.0000 0.6406
vt 0.0000 0.6562
vn 0.4830 -0.2588 -0.8365
vn -0.4830 0.2588 0.8365
vn 0.1294 0.9659 -0.2241
vn -0.1294 -0.9659 0.2241
vn 0.8660 0.0000 0.5000
vn -0.8660 -0.0000 -0.5000
usemtl None
s 1
f 17/33/13 18/34/13 19/35/13 20/36/13
f 21/37/14 22/38/14 23/39/14 24/40/14
f 20/36/15 19/35/15 24/41/15 23/42/15
f 22/43/16 21/44/16 18/45/16 17/46/16
f 22/47/17 17/33/17 20/36/17 23/48/17
f 18/34/18 21/37/18 24/40/18 19/35/18
o Shield1
v 0.135617 0.187598 0.493870
v 0.081491 0.187598 0.525120
v 0.081491 0.312598 0.525120
v 0.135617 0.312598 0.493870
v 0.268991 0.187597 0.849880
v 0.323117 0.187597 0.818630
v 0.323117 0.312597 0.818630
v 0.268991 0.312597 0.849880
vt 0.0938 0.3906
vt 0.1094 0.3906
vt 0.1094 0.4219
vt 0.0938 0.4219
vt 0.2031 0.3906
vt 0.2188 0.3906
vt 0.2188 0.4219
vt 0.2031 0.4219
vt 0.1094 0.5156
vt 0.0938 0.5156
vt 0.1094 0.4219
vt 0.1250 0.4219
vt 0.1250 0.5156
vt 0.1094 0.5156
vt 0.0000 0.3906
vt 0.0000 0.4219
vn -0.5000 0.0000 -0.8660
vn 0.5000 -0.0000 0.8660
vn 0.0000 1.0000 0.0000
vn -0.0000 -1.0000 -0.0000
vn 0.8660 0.0000 -0.5000
vn -0.8660 -0.0000 0.5000
usemtl None
s 1
f 25/49/19 26/50/19 27/51/19 28/52/19
f 29/53/20 30/54/20 31/55/20 32/56/20
f 28/52/21 27/51/21 32/57/21 31/58/21
f 30/59/22 29/60/22 26/61/22 25/62/22
f 30/63/23 25/49/23 28/52/23 31/64/23
f 26/50/24 29/53/24 32/56/24 27/51/24
o MediumShield3
v 0.095994 0.500097 0.699760
v 0.064744 0.500097 0.753886
v 0.064744 0.625097 0.753886
v 0.095994 0.625097 0.699760
v 0.497756 0.500097 1.003886
v 0.529006 0.500097 0.949760
v 0.529006 0.625097 0.949760
v 0.497756 0.625097 1.003886
vt 0.1250 0.2188
vt 0.1406 0.2188
vt 0.1406 0.2500
vt 0.1250 0.2500
vt 0.2656 0.2188
vt 0.2812 0.2188
vt 0.2812 0.2500
vt 0.2656 0.2500
vt 0.1406 0.3750
vt 0.1250 0.3750
vt 0.1406 0.2500
vt 0.1562 0.2500
vt 0.1562 0.3750
vt 0.1406 0.3750
vt 0.0000 0.2188
vt 0.0000 0.2500
vn -0.8660 0.0000 -0.5000
vn 0.8660 0.0000 0.5000
vn 0.0000 1.0000 0.0000
vn 0.0000 -1.0000 -0.0000
vn 0.5000 0.0000 -0.8660
vn -0.5000 -0.0000 0.8660
usemtl None
s 1
f 33/65/25 34/66/25 35/67/25 36/68/25
f 37/69/26 38/70/26 39/71/26 40/72/26
f 36/68/27 35/67/27 40/73/27 39/74/27
f 38/75/28 37/76/28 34/77/28 33/78/28
f 38/79/29 33/65/29 36/68/29 39/80/29
f 34/66/30 37/69/30 40/72/30 35/67/30
o MediumShield6
v 0.904006 0.500098 0.300241
v 0.935256 0.500098 0.246114
v 0.935256 0.625098 0.246114
v 0.904006 0.625098 0.300241
v 0.502244 0.500098 -0.003886
v 0.470994 0.500098 0.050240
v 0.470994 0.625098 0.050240
v 0.502244 0.625098 -0.003886
vt 0.1250 0.2188
vt 0.1406 0.2188
vt 0.1406 0.2500
vt 0.1250 0.2500
vt 0.2656 0.2188
vt 0.2812 0.2188
vt 0.2812 0.2500
vt 0.2656 0.2500
vt 0.1406 0.3750
vt 0.1250 0.3750
vt 0.1406 0.2500
vt 0.1562 0.2500
vt 0.1562 0.3750
vt 0.1406 0.3750
vt 0.0000 0.2188
vt 0.0000 0.2500
vn 0.8660 0.0000 0.5000
vn -0.8660 0.0000 -0.5000
vn 0.0000 1.0000 -0.0000
vn 0.0000 -1.0000 -0.0000
vn -0.5000 -0.0000 0.8660
vn 0.5000 0.0000 -0.8660
usemtl None
s 1
f 41/81/31 42/82/31 43/83/31 44/84/31
f 45/85/32 46/86/32 47/87/32 48/88/32
f 44/84/33 43/83/33 48/89/33 47/90/33
f 46/91/34 45/92/34 42/93/34 41/94/34
f 46/95/35 41/81/35 44/84/35 47/96/35
f 42/82/36 45/85/36 48/88/36 43/83/36
o Shield4
v 0.312500 0.187597 0.812500
v 0.312500 0.187597 0.875000
v 0.312500 0.312597 0.875000
v 0.312500 0.312597 0.812500
v 0.687500 0.187597 0.875000
v 0.687500 0.187597 0.812500
v 0.687500 0.312597 0.812500
v 0.687500 0.312597 0.875000
vt 0.0938 0.3906
vt 0.1094 0.3906
vt 0.1094 0.4219
vt 0.0938 0.4219
vt 0.2031 0.3906
vt 0.2188 0.3906
vt 0.2188 0.4219
vt 0.2031 0.4219
vt 0.1094 0.5156
vt 0.0938 0.5156
vt 0.1094 0.4219
vt 0.1250 0.4219
vt 0.1250 0.5156
vt 0.1094 0.5156
vt 0.0000 0.3906
vt 0.0000 0.4219
vn -1.0000 0.0000 0.0000
vn 1.0000 0.0000 0.0000
vn 0.0000 1.0000 0.0000
vn 0.0000 -1.0000 0.0000
vn 0.0000 0.0000 -1.0000
vn 0.0000 -0.0000 1.0000
usemtl None
s 1
f 49/97/37 50/98/37 51/99/37 52/100/37
f 53/101/38 54/102/38 55/103/38 56/104/38
f 52/100/39 51/99/39 56/105/39 55/106/39
f 54/107/40 53/108/40 50/109/40 49/110/40
f 54/111/41 49/97/41 52/100/41 55/112/41
f 50/98/42 53/101/42 56/104/42 51/99/42
o Shield2
v 0.687500 0.187598 0.187500
v 0.687500 0.187598 0.125000
v 0.687500 0.312598 0.125000
v 0.687500 0.312598 0.187500
v 0.312500 0.187598 0.125000
v 0.312500 0.187598 0.187500
v 0.312500 0.312598 0.187500
v 0.312500 0.312598 0.125000
vt 0.0938 0.3906
vt 0.1094 0.3906
vt 0.1094 0.4219
vt 0.0938 0.4219
vt 0.2031 0.3906
vt 0.2188 0.3906
vt 0.2188 0.4219
vt 0.2031 0.4219
vt 0.1094 0.5156
vt 0.0938 0.5156
vt 0.1094 0.4219
vt 0.1250 0.4219
vt 0.1250 0.5156
vt 0.1094 0.5156
vt 0.0000 0.3906
vt 0.0000 0.4219
vn 1.0000 0.0000 0.0000
vn -1.0000 0.0000 0.0000
vn 0.0000 1.0000 0.0000
vn 0.0000 -1.0000 -0.0000
vn 0.0000 -0.0000 1.0000
vn 0.0000 0.0000 -1.0000
usemtl None
s 1
f 57/113/43 58/114/43 59/115/43 60/116/43
f 61/117/44 62/118/44 63/119/44 64/120/44
f 60/116/45 59/115/45 64/121/45 63/122/45
f 62/123/46 61/124/46 58/125/46 57/126/46
f 62/127/47 57/113/47 60/116/47 63/128/47
f 58/114/48 61/117/48 64/120/48 59/115/48
o MediumShield5
v 0.125000 0.500098 0.250000
v 0.062500 0.500098 0.250000
v 0.062500 0.625098 0.250000
v 0.125000 0.625098 0.250000
v 0.062500 0.500097 0.750000
v 0.125000 0.500097 0.750000
v 0.125000 0.625097 0.750000
v 0.062500 0.625097 0.750000
vt 0.1250 0.2188
vt 0.1406 0.2188
vt 0.1406 0.2500
vt 0.1250 0.2500
vt 0.2656 0.2188
vt 0.2812 0.2188
vt 0.2812 0.2500
vt 0.2656 0.2500
vt 0.1406 0.3750
vt 0.1250 0.3750
vt 0.1406 0.2500
vt 0.1562 0.2500
vt 0.1562 0.3750
vt 0.1406 0.3750
vt 0.0000 0.2188
vt 0.0000 0.2500
vn 0.0000 0.0000 -1.0000
vn 0.0000 0.0000 1.0000
vn 0.0000 1.0000 0.0000
vn 0.0000 -1.0000 -0.0000
vn 1.0000 0.0000 0.0000
vn -1.0000 0.0000 0.0000
usemtl None
s 1
f 65/129/49 66/130/49 67/131/49 68/132/49
f 69/133/50 70/134/50 71/135/50 72/136/50
f 68/132/51 67/131/51 72/137/51 71/138/51
f 70/139/52 69/140/52 66/141/52 65/142/52
f 70/143/53 65/129/53 68/132/53 71/144/53
f 66/130/54 69/133/54 72/136/54 67/131/54
o Shield5
v 0.864383 0.187598 0.506130
v 0.918510 0.187598 0.474880
v 0.918510 0.312598 0.474880
v 0.864383 0.312598 0.506130
v 0.731010 0.187598 0.150120
v 0.676883 0.187598 0.181370
v 0.676883 0.312598 0.181370
v 0.731010 0.312598 0.150120
vt 0.0938 0.3906
vt 0.1094 0.3906
vt 0.1094 0.4219
vt 0.0938 0.4219
vt 0.2031 0.3906
vt 0.2188 0.3906
vt 0.2188 0.4219
vt 0.2031 0.4219
vt 0.1094 0.5156
vt 0.0938 0.5156
vt 0.1094 0.4219
vt 0.1250 0.4219
vt 0.1250 0.5156
vt 0.1094 0.5156
vt 0.0000 0.3906
vt 0.0000 0.4219
vn 0.5000 0.0000 0.8660
vn -0.5000 0.0000 -0.8660
vn 0.0000 1.0000 -0.0000
vn 0.0000 -1.0000 -0.0000
vn -0.8660 0.0000 0.5000
vn 0.8660 0.0000 -0.5000
usemtl None
s 1
f 73/145/55 74/146/55 75/147/55 76/148/55
f 77/149/56 78/150/56 79/151/56 80/152/56
f 76/148/57 75/147/57 80/153/57 79/154/57
f 78/155/58 77/156/58 74/157/58 73/158/58
f 78/159/59 73/145/59 76/148/59 79/160/59
f 74/146/60 77/149/60 80/152/60 75/147/60
o MediumShield4
v 0.470994 0.500097 0.949760
v 0.502244 0.500097 1.003886
v 0.502244 0.625097 1.003886
v 0.470994 0.625097 0.949760
v 0.935256 0.500097 0.753886
v 0.904006 0.500097 0.699759
v 0.904006 0.625097 0.699759
v 0.935256 0.625097 0.753886
vt 0.1250 0.2188
vt 0.1406 0.2188
vt 0.1406 0.2500
vt 0.1250 0.2500
vt 0.2656 0.2188
vt 0.2812 0.2188
vt 0.2812 0.2500
vt 0.2656 0.2500
vt 0.1406 0.3750
vt 0.1250 0.3750
vt 0.1406 0.2500
vt 0.1562 0.2500
vt 0.1562 0.3750
vt 0.1406 0.3750
vt 0.0000 0.2188
vt 0.0000 0.2500
vn -0.8660 0.0000 0.5000
vn 0.8660 0.0000 -0.5000
vn 0.0000 1.0000 -0.0000
vn 0.0000 -1.0000 0.0000
vn -0.5000 0.0000 -0.8660
vn 0.5000 -0.0000 0.8660
usemtl None
s 1
f 81/161/61 82/162/61 83/163/61 84/164/61
f 85/165/62 86/166/62 87/167/62 88/168/62
f 84/164/63 83/163/63 88/169/63 87/170/63
f 86/171/64 85/172/64 82/173/64 81/174/64
f 86/175/65 81/161/65 84/164/65 87/176/65
f 82/162/66 85/165/66 88/168/66 83/163/66
o MediumShield2
v 0.529006 0.500098 0.050240
v 0.497756 0.500098 -0.003886
v 0.497756 0.625098 -0.003886
v 0.529006 0.625098 0.050240
v 0.064744 0.500098 0.246114
v 0.095994 0.500098 0.300240
v 0.095994 0.625098 0.300240
v 0.064744 0.625098 0.246114
vt 0.1250 0.2188
vt 0.1406 0.2188
vt 0.1406 0.2500
vt 0.1250 0.2500
vt 0.2656 0.2188
vt 0.2812 0.2188
vt 0.2812 0.2500
vt 0.2656 0.2500
vt 0.1406 0.3750
vt 0.1250 0.3750
vt 0.1406 0.2500
vt 0.1562 0.2500
vt 0.1562 0.3750
vt 0.1406 0.3750
vt 0.0000 0.2188
vt 0.0000 0.2500
vn 0.8660 0.0000 -0.5000
vn -0.8660 -0.0000 0.5000
vn 0.0000 1.0000 0.0000
vn 0.0000 -1.0000 0.0000
vn 0.5000 -0.0000 0.8660
vn -0.5000 0.0000 -0.8660
usemtl None
s 1
f 89/177/67 90/178/67 91/179/67 92/180/67
f 93/181/68 94/182/68 95/183/68 96/184/68
f 92/180/69 91/179/69 96/185/69 95/186/69
f 94/187/70 93/188/70 90/189/70 89/190/70
f 94/191/71 89/177/71 92/180/71 95/192/71
f 90/178/72 93/181/72 96/184/72 91/179/72
o Blade2.001
v 0.251464 0.236051 0.694523
v 0.792730 0.236051 0.382023
v 0.800818 0.296422 0.396032
v 0.259552 0.296421 0.708532
v 0.732360 0.268404 0.277459
v 0.191094 0.268404 0.589959
v 0.199182 0.328773 0.603968
v 0.740448 0.328774 0.291468
vt 0.0312 0.6406
vt 0.1875 0.6406
vt 0.1875 0.6562
vt 0.0312 0.6562
vt 0.2188 0.6406
vt 0.3750 0.6406
vt 0.3750 0.6562
vt 0.2188 0.6562
vt 0.1875 0.6875
vt 0.0312 0.6875
vt 0.1875 0.6562
vt 0.3438 0.6562
vt 0.3438 0.6875
vt 0.1875 0.6875
vt 0.0000 0.6406
vt 0.0000 0.6562
vn 0.4830 -0.2588 0.8365
vn -0.4830 0.2588 -0.8365
vn 0.1294 0.9659 0.2241
vn -0.1294 -0.9659 -0.2241
vn -0.8660 -0.0000 0.5000
vn 0.8660 0.0000 -0.5000
usemtl None
s 1
f 97/193/73 98/194/73 99/195/73 100/196/73
f 101/197/74 102/198/74 103/199/74 104/200/74
f 100/196/75 99/195/75 104/201/75 103/202/75
f 102/203/76 101/204/76 98/205/76 97/206/76
f 102/207/77 97/193/77 100/196/77 103/208/77
f 98/194/78 101/197/78 104/200/78 99/195/78
o Plug
v 0.625000 0.875098 0.375000
v 0.375000 0.875098 0.375000
v 0.375000 0.937598 0.375000
v 0.625000 0.937598 0.375000
v 0.375000 0.875098 0.625000
v 0.625000 0.875098 0.625000
v 0.625000 0.937598 0.625000
v 0.375000 0.937598 0.625000
vt 0.0625 0.7656
vt 0.1250 0.7656
vt 0.1250 0.7812
vt 0.0625 0.7812
vt 0.1875 0.7656
vt 0.2500 0.7656
vt 0.2500 0.7812
vt 0.1875 0.7812
vt 0.1250 0.8438
vt 0.0625 0.8438
vt 0.1250 0.7812
vt 0.1875 0.7812
vt 0.1875 0.8438
vt 0.1250 0.8438
vt 0.0000 0.7656
vt 0.0000 0.7812
vn 0.0000 0.0000 -1.0000
vn 0.0000 0.0000 1.0000
vn 0.0000 1.0000 0.0000
vn 0.0000 -1.0000 0.0000
vn 1.0000 0.0000 0.0000
vn -1.0000 0.0000 0.0000
usemtl None
s 1
f 105/209/79 106/210/79 107/211/79 108/212/79
f 109/213/80 110/214/80 111/215/80 112/216/80
f 108/212/81 107/211/81 112/217/81 111/218/81
f 110/219/82 109/220/82 106/221/82 105/222/82
f 110/223/83 105/209/83 108/212/83 111/224/83
f 106/210/84 109/213/84 112/216/84 107/211/84
o MediumShield1
v 0.875000 0.500097 0.750000
v 0.937500 0.500097 0.750000
v 0.937500 0.625097 0.750000
v 0.875000 0.625097 0.750000
v 0.937500 0.500098 0.250000
v 0.875000 0.500098 0.250000
v 0.875000 0.625098 0.250000
v 0.937500 0.625098 0.250000
vt 0.1250 0.2188
vt 0.1406 0.2188
vt 0.1406 0.2500
vt 0.1250 0.2500
vt 0.2656 0.2188
vt 0.2812 0.2188
vt 0.2812 0.2500
vt 0.2656 0.2500
vt 0.1406 0.3750
vt 0.1250 0.3750
vt 0.1406 0.2500
vt 0.1562 0.2500
vt 0.1562 0.3750
vt 0.1406 0.3750
vt 0.0000 0.2188
vt 0.0000 0.2500
vn 0.0000 0.0000 1.0000
vn 0.0000 0.0000 -1.0000
vn 0.0000 1.0000 0.0000
vn 0.0000 -1.0000 -0.0000
vn -1.0000 0.0000 0.0000
vn 1.0000 0.0000 0.0000
usemtl None
s 1
f 113/225/85 114/226/85 115/227/85 116/228/85
f 117/229/86 118/230/86 119/231/86 120/232/86
f 116/228/87 115/227/87 120/233/87 119/234/87
f 118/235/88 117/236/88 114/237/88 113/238/88
f 118/239/89 113/225/89 116/228/89 119/240/89
f 114/226/90 117/229/90 120/232/90 115/227/90
o MediumBlade1.001
v 0.350773 0.548550 0.846857
v 0.725773 0.548551 0.197338
v 0.739782 0.608922 0.205426
v 0.364782 0.608921 0.854945
v 0.621209 0.580904 0.136967
v 0.246209 0.580903 0.786486
v 0.260218 0.641273 0.794574
v 0.635218 0.641274 0.145055
vt 0.0312 0.7031
vt 0.2188 0.7031
vt 0.2188 0.7188
vt 0.0312 0.7188
vt 0.2500 0.7031
vt 0.4375 0.7031
vt 0.4375 0.7188
vt 0.2500 0.7188
vt 0.2188 0.7500
vt 0.0312 0.7500
vt 0.2188 0.7188
vt 0.4062 0.7188
vt 0.4062 0.7500
vt 0.2188 0.7500
vt 0.0000 0.7031
vt 0.0000 0.7188
vn 0.8365 -0.2588 0.4830
vn -0.8365 0.2588 -0.4830
vn 0.2241 0.9659 0.1294
vn -0.2241 -0.9659 -0.1294
vn -0.5000 0.0000 0.8660
vn 0.5000 -0.0000 -0.8660
usemtl None
s 1
f 121/241/91 122/242/91 123/243/91 124/244/91
f 125/245/92 126/246/92 127/247/92 128/248/92
f 124/244/93 123/243/93 128/249/93 127/250/93
f 126/251/94 125/252/94 122/253/94 121/254/94
f 126/255/95 121/241/95 124/244/95 127/256/95
f 122/242/96 125/245/96 128/248/96 123/243/96
o Axis
v 0.562500 0.000098 0.437500
v 0.437500 0.000098 0.437500
v 0.437500 0.812598 0.437500
v 0.562500 0.812598 0.437500
v 0.437500 0.000098 0.562500
v 0.562500 0.000098 0.562500
v 0.562500 0.812598 0.562500
v 0.437500 0.812598 0.562500
vt 0.5469 0.7656
vt 0.5781 0.7656
vt 0.5781 0.9688
vt 0.5469 0.9688
vt 0.6094 0.7656
vt 0.6406 0.7656
vt 0.6406 0.9688
vt 0.6094 0.9688
vt 0.5781 1.0000
vt 0.5469 1.0000
vt 0.5781 0.9688
vt 0.6094 0.9688
vt 0.6094 1.0000
vt 0.5781 1.0000
vt 0.5156 0.7656
vt 0.5156 0.9688
vn 0.0000 0.0000 -1.0000
vn 0.0000 -0.0000 1.0000
vn 0.0000 1.0000 0.0000
vn 0.0000 -1.0000 -0.0000
vn 1.0000 0.0000 0.0000
vn -1.0000 0.0000 0.0000
usemtl None
s 1
f 129/257/97 130/258/97 131/259/97 132/260/97
f 133/261/98 134/262/98 135/263/98 136/264/98
f 132/260/99 131/259/99 136/265/99 135/266/99
f 134/267/100 133/268/100 130/269/100 129/270/100
f 134/271/101 129/257/101 132/260/101 135/272/101
f 130/258/102 133/261/102 136/264/102 131/259/102
o Shield3
v 0.323117 0.187598 0.181370
v 0.268991 0.187598 0.150120
v 0.268991 0.312598 0.150120
v 0.323117 0.312598 0.181370
v 0.081491 0.187598 0.474880
v 0.135617 0.187598 0.506130
v 0.135617 0.312598 0.506130
v 0.081491 0.312598 0.474880
vt 0.0938 0.3906
vt 0.1094 0.3906
vt 0.1094 0.4219
vt 0.0938 0.4219
vt 0.2031 0.3906
vt 0.2188 0.3906
vt 0.2188 0.4219
vt 0.2031 0.4219
vt 0.1094 0.5156
vt 0.0938 0.5156
vt 0.1094 0.4219
vt 0.1250 0.4219
vt 0.1250 0.5156
vt 0.1094 0.5156
vt 0.0000 0.3906
vt 0.0000 0.4219
vn 0.5000 0.0000 -0.8660
vn -0.5000 0.0000 0.8660
vn -0.0000 1.0000 0.0000
vn -0.0000 -1.0000 -0.0000
vn 0.8660 0.0000 0.5000
vn -0.8660 0.0000 -0.5000
usemtl None
s 1
f 137/273/103 138/274/103 139/275/103 140/276/103
f 141/277/104 142/278/104 143/279/104 144/280/104
f 140/276/105 139/275/105 144/281/105 143/282/105
f 142/283/106 141/284/106 138/285/106 137/286/106
f 142/287/107 137/273/107 140/276/107 143/288/107
f 138/274/108 141/277/108 144/280/108 139/275/108
o Blade1.001
v 0.544194 0.236050 0.812500
v 0.544194 0.236051 0.187500
v 0.560370 0.296422 0.187500
v 0.560370 0.296421 0.812500
v 0.423453 0.268404 0.187500
v 0.423453 0.268403 0.812500
v 0.439630 0.328773 0.812500
v 0.439630 0.328774 0.187500
vt 0.0312 0.6406
vt 0.1875 0.6406
vt 0.1875 0.6562
vt 0.0312 0.6562
vt 0.2188 0.6406
vt 0.3750 0.6406
vt 0.3750 0.6562
vt 0.2188 0.6562
vt 0.1875 0.6875
vt 0.0312 0.6875
vt 0.1875 0.6562
vt 0.3438 0.6562
vt 0.3438 0.6875
vt 0.1875 0.6875
vt 0.0000 0.6406
vt 0.0000 0.6562
vn 0.9659 -0.2588 -0.0000
vn -0.9659 0.2588 0.0000
vn 0.2588 0.9659 0.0000
vn -0.2588 -0.9659 -0.0000
vn 0.0000 -0.0000 1.0000
vn 0.0000 0.0000 -1.0000
usemtl None
s 1
f 145/289/109 146/290/109 147/291/109 148/292/109
f 149/293/110 150/294/110 151/295/110 152/296/110
f 148/292/111 147/291/111 152/297/111 151/298/111
f 150/299/112 149/300/112 146/301/112 145/302/112
f 150/303/113 145/289/113 148/292/113 151/304/113
f 146/290/114 149/293/114 152/296/114 147/291/114
o MediumBlade2.001
v 0.725773 0.548550 0.802662
v 0.350773 0.548551 0.153143
v 0.364782 0.608922 0.145055
v 0.739782 0.608921 0.794574
v 0.246209 0.580904 0.213514
v 0.621209 0.580903 0.863033
v 0.635218 0.641273 0.854945
v 0.260218 0.641274 0.205426
vt 0.0312 0.7031
vt 0.2188 0.7031
vt 0.2188 0.7188
vt 0.0312 0.7188
vt 0.2500 0.7031
vt 0.4375 0.7031
vt 0.4375 0.7188
vt 0.2500 0.7188
vt 0.2188 0.7500
vt 0.0312 0.7500
vt 0.2188 0.7188
vt 0.4062 0.7188
vt 0.4062 0.7500
vt 0.2188 0.7500
vt 0.0000 0.7031
vt 0.0000 0.7188
vn 0.8365 -0.2588 -0.4830
vn -0.8365 0.2588 0.4830
vn 0.2241 0.9659 -0.1294
vn -0.2241 -0.9659 0.1294
vn 0.5000 -0.0000 0.8660
vn -0.5000 0.0000 -0.8660
usemtl None
s 1
f 153/305/115 154/306/115 155/307/115 156/308/115
f 157/309/116 158/310/116 159/311/116 160/312/116
f 156/308/117 155/307/117 160/313/117 159/314/117
f 158/315/118 157/316/118 154/317/118 153/318/118
f 158/319/119 153/305/119 156/308/119 159/320/119
f 154/306/120 157/309/120 160/312/120 155/307/120
o MediumBlade3.001
v 0.875000 0.548551 0.455806
v 0.125000 0.548551 0.455806
v 0.125000 0.608922 0.439630
v 0.875000 0.608922 0.439630
v 0.125000 0.580904 0.576547
v 0.875000 0.580904 0.576547
v 0.875000 0.641274 0.560370
v 0.125000 0.641274 0.560370
vt 0.0312 0.7031
vt 0.2188 0.7031
vt 0.2188 0.7188
vt 0.0312 0.7188
vt 0.2500 0.7031
vt 0.4375 0.7031
vt 0.4375 0.7188
vt 0.2500 0.7188
vt 0.2188 0.7500
vt 0.0312 0.7500
vt 0.2188 0.7188
vt 0.4062 0.7188
vt 0.4062 0.7500
vt 0.2188 0.7500
vt 0.0000 0.7031
vt 0.0000 0.7188
vn 0.0000 -0.2588 -0.9659
vn 0.0000 0.2588 0.9659
vn 0.0000 0.9659 -0.2588
vn 0.0000 -0.9659 0.2588
vn 1.0000 0.0000 0.0000
vn -1.0000 0.0000 0.0000
usemtl None
s 1
f 161/321/121 162/322/121 163/323/121 164/324/121
f 165/325/122 166/326/122 167/327/122 168/328/122
f 164/324/123 163/323/123 168/329/123 167/330/123
f 166/331/124 165/332/124 162/333/124 161/334/124
f 166/335/125 161/321/125 164/324/125 167/336/125
f 162/322/126 165/325/126 168/328/126 163/323/126
o Shield6
v 0.676883 0.187597 0.818630
v 0.731010 0.187597 0.849880
v 0.731010 0.312597 0.849880
v 0.676883 0.312597 0.818630
v 0.918510 0.187598 0.525120
v 0.864383 0.187598 0.493870
v 0.864383 0.312598 0.493870
v 0.918510 0.312598 0.525120
vt 0.0938 0.3906
vt 0.1094 0.3906
vt 0.1094 0.4219
vt 0.0938 0.4219
vt 0.2031 0.3906
vt 0.2188 0.3906
vt 0.2188 0.4219
vt 0.2031 0.4219
vt 0.1094 0.5156
vt 0.0938 0.5156
vt 0.1094 0.4219
vt 0.1250 0.4219
vt 0.1250 0.5156
vt 0.1094 0.5156
vt 0.0000 0.3906
vt 0.0000 0.4219
vn -0.5000 -0.0000 0.8660
vn 0.5000 0.0000 -0.8660
vn -0.0000 1.0000 0.0000
vn 0.0000 -1.0000 -0.0000
vn -0.8660 0.0000 -0.5000
vn 0.8660 -0.0000 0.5000
usemtl None
s 1
f 169/337/127 170/338/127 171/339/127 172/340/127
f 173/341/128 174/342/128 175/343/128 176/344/128
f 172/340/129 171/339/129 176/345/129 175/346/129
f 174/347/130 173/348/130 170/349/130 169/350/130
f 174/351/131 169/337/131 172/340/131 175/352/131
f 170/338/132 173/341/132 176/344/132 171/339/132
