# Blender v2.78 (sub 0) OBJ File: 'nuclear_boiler.obj'
# www.blender.org
mtllib nuclear_boiler.mtl
o Support
v 0.062500 0.062966 0.812500
v 0.937500 0.062966 0.812500
v 0.937500 0.250466 0.812500
v 0.062500 0.250466 0.812500
v 0.937500 0.062966 0.000000
v 0.062500 0.062966 0.000000
v 0.062500 0.250466 0.000000
v 0.937500 0.250466 0.000000
vt 0.1016 0.7266
vt 0.2109 0.7266
vt 0.2109 0.7500
vt 0.1016 0.7500
vt 0.3125 0.7266
vt 0.4219 0.7266
vt 0.4219 0.7500
vt 0.3125 0.7500
vt 0.2109 0.8516
vt 0.1016 0.8516
vt 0.2109 0.7500
vt 0.3203 0.7500
vt 0.3203 0.8516
vt 0.2109 0.8516
vt 0.0000 0.7266
vt 0.0000 0.7500
vn 0.0000 -0.0000 1.0000
vn 0.0000 0.0000 -1.0000
vn 0.0000 1.0000 0.0000
vn -0.0000 -1.0000 0.0000
vn -1.0000 0.0000 0.0000
vn 1.0000 0.0000 -0.0000
usemtl None
s 1
f 1/1/1 2/2/1 3/3/1 4/4/1
f 5/5/2 6/6/2 7/7/2 8/8/2
f 4/4/3 3/3/3 8/9/3 7/10/3
f 6/11/4 5/12/4 2/13/4 1/14/4
f 6/15/5 1/1/5 4/4/5 7/16/5
f 2/2/6 5/5/6 8/8/6 3/3/6
o TopSupport3
v 0.125000 0.875466 0.250000
v 0.875000 0.875466 0.250000
v 0.875000 0.937966 0.250000
v 0.125000 0.937966 0.250000
v 0.875000 0.875466 0.000000
v 0.125000 0.875466 0.000000
v 0.125000 0.937966 0.000000
v 0.875000 0.937966 0.000000
vt 0.5391 0.9609
vt 0.6328 0.9609
vt 0.6328 0.9688
vt 0.5391 0.9688
vt 0.6641 0.9609
vt 0.7578 0.9609
vt 0.7578 0.9688
vt 0.6641 0.9688
vt 0.6328 1.0000
vt 0.5391 1.0000
vt 0.6328 0.9688
vt 0.7266 0.9688
vt 0.7266 1.0000
vt 0.6328 1.0000
vt 0.5078 0.9609
vt 0.5078 0.9688
vn 0.0000 0.0000 1.0000
vn 0.0000 0.0000 -1.0000
vn 0.0000 1.0000 0.0000
vn -0.0000 -1.0000 0.0000
vn -1.0000 0.0000 0.0000
vn 1.0000 0.0000 0.0000
usemtl None
s 1
f 9/17/7 10/18/7 11/19/7 12/20/7
f 13/21/8 14/22/8 15/23/8 16/24/8
f 12/20/9 11/19/9 16/25/9 15/26/9
f 14/27/10 13/28/10 10/29/10 9/30/10
f 14/31/11 9/17/11 12/20/11 15/32/11
f 10/18/12 13/21/12 16/24/12 11/19/12
o FuelBar2Rotates
v 0.227123 0.312966 0.164623
v 0.289623 0.312966 0.272877
v 0.289623 0.875466 0.272877
v 0.227123 0.875466 0.164623
v 0.397877 0.312966 0.210377
v 0.335377 0.312966 0.102123
v 0.335377 0.875466 0.102123
v 0.397877 0.875466 0.210377
vt 0.5234 0.8125
vt 0.5391 0.8125
vt 0.5391 0.8828
vt 0.5234 0.8828
vt 0.5547 0.8125
vt 0.5703 0.8125
vt 0.5703 0.8828
vt 0.5547 0.8828
vt 0.5391 0.8984
vt 0.5234 0.8984
vt 0.5391 0.8828
vt 0.5547 0.8828
vt 0.5547 0.8984
vt 0.5391 0.8984
vt 0.5078 0.8125
vt 0.5078 0.8828
vn -0.8660 0.0000 0.5000
vn 0.8660 -0.0000 -0.5000
vn 0.0000 1.0000 -0.0000
vn -0.0000 -1.0000 0.0000
vn -0.5000 0.0000 -0.8660
vn 0.5000 -0.0000 0.8660
usemtl None
s 1
f 17/33/13 18/34/13 19/35/13 20/36/13
f 21/37/14 22/38/14 23/39/14 24/40/14
f 20/36/15 19/35/15 24/41/15 23/42/15
f 22/43/16 21/44/16 18/45/16 17/46/16
f 22/47/17 17/33/17 20/36/17 23/48/17
f 18/34/18 21/37/18 24/40/18 19/35/18
o RadShieldPlate3
v 0.891747 0.062966 0.000000
v 0.641747 0.062966 0.433013
v 0.641747 0.937966 0.433013
v 0.891747 0.937966 0.000000
v 0.750000 0.062966 0.495513
v 1.000000 0.062966 0.062500
v 1.000000 0.937966 0.062500
v 0.750000 0.937966 0.495513
vt 0.2031 0.5859
vt 0.2656 0.5859
vt 0.2656 0.6953
vt 0.2031 0.6953
vt 0.2812 0.5859
vt 0.3438 0.5859
vt 0.3438 0.6953
vt 0.2812 0.6953
vt 0.2656 0.7109
vt 0.2031 0.7109
vt 0.2656 0.6953
vt 0.3281 0.6953
vt 0.3281 0.7109
vt 0.2656 0.7109
vt 0.1875 0.5859
vt 0.1875 0.6953
vn -0.8660 0.0000 -0.5000
vn 0.8660 -0.0000 0.5000
vn 0.0000 1.0000 0.0000
vn -0.0000 -1.0000 0.0000
vn 0.5000 -0.0000 -0.8660
vn -0.5000 0.0000 0.8660
usemtl None
s 1
f 25/49/19 26/50/19 27/51/19 28/52/19
f 29/53/20 30/54/20 31/55/20 32/56/20
f 28/52/21 27/51/21 32/57/21 31/58/21
f 30/59/22 29/60/22 26/61/22 25/62/22
f 30/63/23 25/49/23 28/52/23 31/64/23
f 26/50/24 29/53/24 32/56/24 27/51/24
o FuelBarSupport2Rotates
v 0.141747 0.250466 0.141747
v 0.266747 0.250466 0.358253
v 0.266747 0.312966 0.358253
v 0.141747 0.312966 0.141747
v 0.483253 0.250466 0.233253
v 0.358253 0.250466 0.016747
v 0.358253 0.312966 0.016747
v 0.483253 0.312966 0.233253
vt 0.6172 0.8594
vt 0.6484 0.8594
vt 0.6484 0.8672
vt 0.6172 0.8672
vt 0.6797 0.8594
vt 0.7109 0.8594
vt 0.7109 0.8672
vt 0.6797 0.8672
vt 0.6484 0.8984
vt 0.6172 0.8984
vt 0.6484 0.8672
vt 0.6797 0.8672
vt 0.6797 0.8984
vt 0.6484 0.8984
vt 0.5859 0.8594
vt 0.5859 0.8672
vn -0.8660 0.0000 0.5000
vn 0.8660 0.0000 -0.5000
vn 0.0000 1.0000 0.0000
vn -0.0000 -1.0000 0.0000
vn -0.5000 0.0000 -0.8660
vn 0.5000 -0.0000 0.8660
usemtl None
s 1
f 33/65/25 34/66/25 35/67/25 36/68/25
f 37/69/26 38/70/26 39/71/26 40/72/26
f 36/68/27 35/67/27 40/73/27 39/74/27
f 38/75/28 37/76/28 34/77/28 33/78/28
f 38/79/29 33/65/29 36/68/29 39/80/29
f 34/66/30 37/69/30 40/72/30 35/67/30
o TopSupport1
v 0.533494 0.875466 0.216506
v 0.804127 0.875466 0.372756
v 0.804127 0.937966 0.372756
v 0.533494 0.937966 0.216506
v 0.929127 0.875466 0.156250
v 0.658494 0.875466 0.000000
v 0.658494 0.937966 0.000000
v 0.929127 0.937966 0.156250
vt 0.5391 0.9141
vt 0.5781 0.9141
vt 0.5781 0.9219
vt 0.5391 0.9219
vt 0.6094 0.9141
vt 0.6484 0.9141
vt 0.6484 0.9219
vt 0.6094 0.9219
vt 0.5781 0.9531
vt 0.5391 0.9531
vt 0.5781 0.9219
vt 0.6172 0.9219
vt 0.6172 0.9531
vt 0.5781 0.9531
vt 0.5078 0.9141
vt 0.5078 0.9219
vn -0.5000 0.0000 0.8660
vn 0.5000 0.0000 -0.8660
vn 0.0000 1.0000 0.0000
vn -0.0000 -1.0000 -0.0000
vn -0.8660 0.0000 -0.5000
vn 0.8660 0.0000 0.5000
usemtl None
s 1
f 41/81/31 42/82/31 43/83/31 44/84/31
f 45/85/32 46/86/32 47/87/32 48/88/32
f 44/84/33 43/83/33 48/89/33 47/90/33
f 46/91/34 45/92/34 42/93/34 41/94/34
f 46/95/35 41/81/35 44/84/35 47/96/35
f 42/82/36 45/85/36 48/88/36 43/83/36
o FuelBarSupport1Rotates
v 0.516747 0.250466 0.233253
v 0.733253 0.250466 0.358253
v 0.733253 0.312966 0.358253
v 0.516747 0.312966 0.233253
v 0.858253 0.250466 0.141747
v 0.641747 0.250466 0.016747
v 0.641747 0.312966 0.016747
v 0.858253 0.312966 0.141747
vt 0.6172 0.8594
vt 0.6484 0.8594
vt 0.6484 0.8672
vt 0.6172 0.8672
vt 0.6797 0.8594
vt 0.7109 0.8594
vt 0.7109 0.8672
vt 0.6797 0.8672
vt 0.6484 0.8984
vt 0.6172 0.8984
vt 0.6484 0.8672
vt 0.6797 0.8672
vt 0.6797 0.8984
vt 0.6484 0.8984
vt 0.5859 0.8594
vt 0.5859 0.8672
vn -0.5000 0.0000 0.8660
vn 0.5000 0.0000 -0.8660
vn 0.0000 1.0000 0.0000
vn -0.0000 -1.0000 -0.0000
vn -0.8660 0.0000 -0.5000
vn 0.8660 0.0000 0.5000
usemtl None
s 1
f 49/97/37 50/98/37 51/99/37 52/100/37
f 53/101/38 54/102/38 55/103/38 56/104/38
f 52/100/39 51/99/39 56/105/39 55/106/39
f 54/107/40 53/108/40 50/109/40 49/110/40
f 54/111/41 49/97/41 52/100/41 55/112/41
f 50/98/42 53/101/42 56/104/42 51/99/42
o TopSupport2
v 0.187500 0.875466 0.375000
v 0.458133 0.875466 0.218750
v 0.458133 0.937966 0.218750
v 0.187500 0.937966 0.375000
v 0.333133 0.875466 0.002244
v 0.062500 0.875466 0.158494
v 0.062500 0.937966 0.158494
v 0.333133 0.937966 0.002244
vt 0.5391 0.9141
vt 0.5781 0.9141
vt 0.5781 0.9219
vt 0.5391 0.9219
vt 0.6094 0.9141
vt 0.6484 0.9141
vt 0.6484 0.9219
vt 0.6094 0.9219
vt 0.5781 0.9531
vt 0.5391 0.9531
vt 0.5781 0.9219
vt 0.6172 0.9219
vt 0.6172 0.9531
vt 0.5781 0.9531
vt 0.5078 0.9141
vt 0.5078 0.9219
vn 0.5000 0.0000 0.8660
vn -0.5000 0.0000 -0.8660
vn 0.0000 1.0000 0.0000
vn -0.0000 -1.0000 0.0000
vn -0.8660 0.0000 0.5000
vn 0.8660 -0.0000 -0.5000
usemtl None
s 1
f 57/113/43 58/114/43 59/115/43 60/116/43
f 61/117/44 62/118/44 63/119/44 64/120/44
f 60/116/45 59/115/45 64/121/45 63/122/45
f 62/123/46 61/124/46 58/125/46 57/126/46
f 62/127/47 57/113/47 60/116/47 63/128/47
f 58/114/48 61/117/48 64/120/48 59/115/48
o FuelBar1Rotates
v 0.602123 0.312966 0.210377
v 0.710377 0.312966 0.272877
v 0.710377 0.875466 0.272877
v 0.602123 0.875466 0.210377
v 0.772877 0.312966 0.164623
v 0.664623 0.312966 0.102123
v 0.664623 0.875466 0.102123
v 0.772877 0.875466 0.164623
vt 0.5234 0.8125
vt 0.5391 0.8125
vt 0.5391 0.8828
vt 0.5234 0.8828
vt 0.5547 0.8125
vt 0.5703 0.8125
vt 0.5703 0.8828
vt 0.5547 0.8828
vt 0.5391 0.8984
vt 0.5234 0.8984
vt 0.5391 0.8828
vt 0.5547 0.8828
vt 0.5547 0.8984
vt 0.5391 0.8984
vt 0.5078 0.8125
vt 0.5078 0.8828
vn -0.5000 0.0000 0.8660
vn 0.5000 -0.0000 -0.8660
vn 0.0000 1.0000 0.0000
vn -0.0000 -1.0000 0.0000
vn -0.8660 0.0000 -0.5000
vn 0.8660 -0.0000 0.5000
usemtl None
s 1
f 65/129/49 66/130/49 67/131/49 68/132/49
f 69/133/50 70/134/50 71/135/50 72/136/50
f 68/132/51 67/131/51 72/137/51 71/138/51
f 70/139/52 69/140/52 66/141/52 65/142/52
f 70/143/53 65/129/53 68/132/53 71/144/53
f 66/130/54 69/133/54 72/136/54 67/131/54
o RadShieldPlate1
v 0.250000 0.062966 0.500000
v 0.750000 0.062966 0.500000
v 0.750000 0.937966 0.500000
v 0.250000 0.937966 0.500000
v 0.750000 0.062966 0.437500
v 0.250000 0.062966 0.437500
v 0.250000 0.937966 0.437500
v 0.750000 0.937966 0.437500
vt 0.3672 0.5938
vt 0.4297 0.5938
vt 0.4297 0.7031
vt 0.3672 0.7031
vt 0.4375 0.5938
vt 0.5000 0.5938
vt 0.5000 0.7031
vt 0.4375 0.7031
vt 0.4297 0.7109
vt 0.3672 0.7109
vt 0.4297 0.7031
vt 0.4922 0.7031
vt 0.4922 0.7109
vt 0.4297 0.7109
vt 0.3594 0.5938
vt 0.3594 0.7031
vn 0.0000 -0.0000 1.0000
vn -0.0000 0.0000 -1.0000
vn 0.0000 1.0000 0.0000
vn -0.0000 -1.0000 0.0000
vn -1.0000 0.0000 0.0000
vn 1.0000 -0.0000 0.0000
usemtl None
s 1
f 73/145/55 74/146/55 75/147/55 76/148/55
f 77/149/56 78/150/56 79/151/56 80/152/56
f 76/148/57 75/147/57 80/153/57 79/154/57
f 78/155/58 77/156/58 74/157/58 73/158/58
f 78/159/59 73/145/59 76/148/59 79/160/59
f 74/146/60 77/149/60 80/152/60 75/147/60
o RadShieldPlate2
v -0.000000 0.062966 0.062500
v 0.242405 0.062966 0.499810
v 0.242405 0.937966 0.499810
v 0.000000 0.937966 0.062500
v 0.351732 0.062966 0.439209
v 0.109327 0.062966 0.001899
v 0.109327 0.937966 0.001899
v 0.351732 0.937966 0.439209
vt 0.2031 0.5859
vt 0.2656 0.5859
vt 0.2656 0.6953
vt 0.2031 0.6953
vt 0.2812 0.5859
vt 0.3438 0.5859
vt 0.3438 0.6953
vt 0.2812 0.6953
vt 0.2656 0.7109
vt 0.2031 0.7109
vt 0.2656 0.6953
vt 0.3281 0.6953
vt 0.3281 0.7109
vt 0.2656 0.7109
vt 0.1875 0.5859
vt 0.1875 0.6953
vn -0.8746 0.0000 0.4848
vn 0.8746 -0.0000 -0.4848
vn 0.0000 1.0000 0.0000
vn -0.0000 -1.0000 -0.0000
vn -0.4848 0.0000 -0.8746
vn 0.4848 -0.0000 0.8746
usemtl None
s 1
f 81/161/61 82/162/61 83/163/61 84/164/61
f 85/165/62 86/166/62 87/167/62 88/168/62
f 84/164/63 83/163/63 88/169/63 87/170/63
f 86/171/64 85/172/64 82/173/64 81/174/64
f 86/175/65 81/161/65 84/164/65 87/176/65
f 82/162/66 85/165/66 88/168/66 83/163/66
o ThermalDisplay
v 0.250000 0.064879 0.978050
v 0.750000 0.064879 0.978050
v 0.750000 0.687966 0.687500
v 0.250000 0.687966 0.687500
v 0.750000 -0.014361 0.808117
v 0.250000 -0.014362 0.808117
v 0.250000 0.608725 0.517567
v 0.750000 0.608725 0.517567
vt 0.0234 0.6016
vt 0.0859 0.6016
vt 0.0859 0.6875
vt 0.0234 0.6875
vt 0.1094 0.6016
vt 0.1719 0.6016
vt 0.1719 0.6875
vt 0.1094 0.6875
vt 0.0859 0.7109
vt 0.0234 0.7109
vt 0.0859 0.6875
vt 0.1484 0.6875
vt 0.1484 0.7109
vt 0.0859 0.7109
vt 0.0000 0.6016
vt 0.0000 0.6875
vn 0.0000 0.4226 0.9063
vn 0.0000 -0.4226 -0.9063
vn 0.0000 0.9063 -0.4226
vn 0.0000 -0.9063 0.4226
vn -1.0000 0.0000 -0.0000
vn 1.0000 -0.0000 -0.0000
usemtl None
s 1
f 89/177/67 90/178/67 91/179/67 92/180/67
f 93/181/68 94/182/68 95/183/68 96/184/68
f 92/180/69 91/179/69 96/185/69 95/186/69
f 94/187/70 93/188/70 90/189/70 89/190/70
f 94/191/71 89/177/71 92/180/71 95/192/71
f 90/178/72 93/181/72 96/184/72 91/179/72
o Base
v 0.000000 0.000466 1.000000
v 1.000000 0.000466 1.000000
v 1.000000 0.062966 1.000000
v 0.000000 0.062966 1.000000
v 1.000000 0.000466 0.000000
v -0.000000 0.000466 0.000000
v -0.000000 0.062966 0.000000
v 1.000000 0.062966 0.000000
vt 0.1250 0.8672
vt 0.2500 0.8672
vt 0.2500 0.8750
vt 0.1250 0.8750
vt 0.3750 0.8672
vt 0.5000 0.8672
vt 0.5000 0.8750
vt 0.3750 0.8750
vt 0.2500 1.0000
vt 0.1250 1.0000
vt 0.2500 0.8750
vt 0.3750 0.8750
vt 0.3750 1.0000
vt 0.2500 1.0000
vt 0.0000 0.8672
vt 0.0000 0.8750
vn 0.0000 0.0000 1.0000
vn 0.0000 0.0000 -1.0000
vn 0.0000 1.0000 0.0000
vn -0.0000 -1.0000 0.0000
vn -1.0000 0.0000 0.0000
vn 1.0000 0.0000 -0.0000
usemtl None
s 1
f 97/193/73 98/194/73 99/195/73 100/196/73
f 101/197/74 102/198/74 103/199/74 104/200/74
f 100/196/75 99/195/75 104/201/75 103/202/75
f 102/203/76 101/204/76 98/205/76 97/206/76
f 102/207/77 97/193/77 100/196/77 103/208/77
f 98/194/78 101/197/78 104/200/78 99/195/78
